<?xml version="1.0" encoding="UTF-8" standalone="no"?>
<!-- Created with Inkscape (http://www.inkscape.org/) -->

<svg
   xmlns:dc="http://purl.org/dc/elements/1.1/"
   xmlns:cc="http://creativecommons.org/ns#"
   xmlns:rdf="http://www.w3.org/1999/02/22-rdf-syntax-ns#"
   xmlns:svg="http://www.w3.org/2000/svg"
   xmlns="http://www.w3.org/2000/svg"
   version="1.1"
   width="200"
   height="248.02606"
   id="svg3004"
   xml:space="preserve"><metadata
     id="metadata3010"><rdf:RDF><cc:Work
         rdf:about=""><dc:format>image/svg+xml</dc:format><dc:type
           rdf:resource="http://purl.org/dc/dcmitype/StillImage" /><dc:title></dc:title></cc:Work></rdf:RDF></metadata><defs
     id="defs3008"><clipPath
       id="clipPath3018"><path
         d="m 0,258.993 208.795,0 0,-258.933 L 0,0.06 0,258.993 z"
         id="path3020" /></clipPath><radialGradient
       cx="0"
       cy="0"
       r="1"
       fx="0"
       fy="0"
       id="radialGradient3046"
       gradientUnits="userSpaceOnUse"
       gradientTransform="matrix(-232.198,0,0,232.198,190.437,68.751)"
       spreadMethod="pad"><stop
         id="stop3048"
         style="stop-color:#1da6e6;stop-opacity:1"
         offset="0" /><stop
         id="stop3050"
         style="stop-color:#092d48;stop-opacity:1"
         offset="1" /></radialGradient></defs><g
     transform="matrix(1.25,0,0,-1.25,-30.496875,285.92115)"
     id="g3012"><g
       transform="matrix(0.76630188,0,0,0.76630188,24.3975,30.2701)"
       id="g3014"><g
         clip-path="url(#clipPath3018)"
         id="g3016"><path
           d="m 2.876,32.748 5.458,0 0,-32.688 -5.458,0 0,32.688 z"
           id="path3022"
           style="fill:#231f20;fill-opacity:1;fill-rule:nonzero;stroke:none" /><path
           d="m 17.777,22.91 0,-18.849 18.786,0 0,6.412 5.078,-0.953 0,-3.176 C 41.641,1.396 40.118,0 35.04,0 L 19.237,0 C 14.033,0 12.7,1.396 12.7,6.344 l 0,14.156 c 0,4.949 1.396,6.41 6.537,6.41 l 15.803,0 c 5.014,0 6.601,-1.396 6.601,-6.41 l 0,-2.538 -5.078,-0.826 0,5.774 -18.786,0"
           id="path3024"
           style="fill:#231f20;fill-opacity:1;fill-rule:nonzero;stroke:none" /><path
           d="m 45.482,26.91 27.101,0 0,-4 -22.024,0 0,-6.917 13.266,0 0,-3.998 -13.266,0 0,-8.061 22.277,0 0,-3.934 -27.354,0 0,26.91"
           id="path3026"
           style="fill:#231f20;fill-opacity:1;fill-rule:nonzero;stroke:none" /><path
           d="m 82.37,28.305 0,-23.737 22.72,0 0,8.189 5.459,-1.145 0,-3.871 C 110.549,1.65 108.835,0 102.933,0 L 84.591,0 c -5.902,0 -7.68,1.714 -7.68,7.741 l 0,17.265 c 0,6.028 1.778,7.742 7.68,7.742 l 18.342,0 c 5.902,0 7.616,-1.649 7.616,-7.742 l 0,-3.11 -5.459,-1.016 0,7.425 -22.72,0"
           id="path3028"
           style="fill:#231f20;fill-opacity:1;fill-rule:nonzero;stroke:none" /><path
           d="m 119.919,4.061 19.674,0 0,22.849 5.142,0 0,-20.566 C 144.735,1.457 143.337,0 138.133,0 l -16.691,0 c -5.077,0 -6.6,1.396 -6.6,6.344 l 0,20.566 5.077,0 0,-22.849"
           id="path3030"
           style="fill:#231f20;fill-opacity:1;fill-rule:nonzero;stroke:none" /><path
           d="m 153.733,3.934 15.611,0 c 2.223,0 3.049,0.699 3.049,3.045 l 0,2.095 c 0,2.349 -0.889,3.048 -3.049,3.048 l -15.611,0 0,-8.188 z m 18.468,16.82 c 0,1.777 -0.825,2.219 -2.857,2.219 l -15.611,0 0,-6.917 15.611,0 c 1.969,0 2.857,0.254 2.857,2.157 l 0,2.541 z m -23.545,6.156 22.72,0 c 4.127,0 5.904,-1.588 5.904,-5.268 l 0,-3.11 c 0,-2.857 -1.461,-4.252 -4.698,-4.633 3.173,-0.319 4.886,-2.157 4.886,-5.205 l 0,-3.426 C 177.468,1.65 174.866,0 169.664,0 l -21.008,0 0,26.91"
           id="path3032"
           style="fill:#231f20;fill-opacity:1;fill-rule:nonzero;stroke:none" /><path
           d="m 180.761,26.91 27.102,0 0,-4 -22.024,0 0,-6.917 13.265,0 0,-3.998 -13.265,0 0,-8.061 22.277,0 0,-3.934 -27.355,0 0,26.91"
           id="path3034"
           style="fill:#231f20;fill-opacity:1;fill-rule:nonzero;stroke:none" /></g></g><g
       transform="matrix(0.76630188,0,0,0.76630188,24.3975,30.2701)"
       id="g3036"><g
         id="g3038"><g
           id="g3044"><path
             d="m 190.82,50.2 c -9.932,0 -17.982,8.048 -17.982,17.979 0,9.927 8.05,17.975 17.982,17.975 9.928,0 17.975,-8.048 17.975,-17.975 0,-9.931 -8.047,-17.979 -17.975,-17.979 m -43.212,0 c -9.93,0 -17.979,8.048 -17.979,17.979 0,9.927 8.049,17.975 17.979,17.975 9.927,0 17.979,-8.048 17.979,-17.975 0,-9.931 -8.052,-17.979 -17.979,-17.979 m -43.208,0 c -9.93,0 -17.98,8.048 -17.98,17.979 0,9.927 8.05,17.975 17.98,17.975 9.929,0 17.978,-8.048 17.978,-17.975 0,-9.931 -8.049,-17.979 -17.978,-17.979 m -43.212,0 c -9.931,0 -17.978,8.048 -17.978,17.979 0,9.927 8.047,17.975 17.978,17.975 9.928,0 17.98,-8.048 17.98,-17.975 0,-9.931 -8.052,-17.979 -17.98,-17.979 m -43.209,0 C 8.046,50.2 0,58.248 0,68.179 c 0,9.927 8.046,17.975 17.979,17.975 9.929,0 17.977,-8.048 17.977,-17.975 C 35.956,58.248 27.908,50.2 17.979,50.2 M 190.82,93.408 c -9.932,0 -17.982,8.051 -17.982,17.974 0,9.93 8.05,17.984 17.982,17.984 9.928,0 17.975,-8.054 17.975,-17.984 0,-9.923 -8.047,-17.974 -17.975,-17.974 m -43.212,0 c -9.93,0 -17.979,8.051 -17.979,17.974 0,9.93 8.049,17.984 17.979,17.984 9.927,0 17.979,-8.054 17.979,-17.984 0,-9.923 -8.052,-17.974 -17.979,-17.974 m -43.208,0 c -9.93,0 -17.98,8.051 -17.98,17.974 0,9.93 8.05,17.984 17.98,17.984 9.929,0 17.978,-8.054 17.978,-17.984 0,-9.923 -8.049,-17.974 -17.978,-17.974 m -43.212,0 c -9.931,0 -17.978,8.051 -17.978,17.974 0,9.93 8.047,17.984 17.978,17.984 9.928,0 17.98,-8.054 17.98,-17.984 0,-9.923 -8.052,-17.974 -17.98,-17.974 m -43.209,0 C 8.046,93.408 0,101.459 0,111.382 c 0,9.93 8.046,17.984 17.979,17.984 9.929,0 17.977,-8.054 17.977,-17.984 0,-9.923 -8.048,-17.974 -17.977,-17.974 m 172.841,43.208 c -9.932,0 -17.982,8.051 -17.982,17.976 0,9.933 8.05,17.979 17.982,17.979 9.928,0 17.975,-8.046 17.975,-17.979 0,-9.925 -8.047,-17.976 -17.975,-17.976 m -43.212,0 c -9.93,0 -17.979,8.051 -17.979,17.976 0,9.933 8.049,17.979 17.979,17.979 9.927,0 17.979,-8.046 17.979,-17.979 0,-9.925 -8.052,-17.976 -17.979,-17.976 m -43.208,0 c -9.93,0 -17.98,8.051 -17.98,17.976 0,9.933 8.05,17.979 17.98,17.979 9.929,0 17.978,-8.046 17.978,-17.979 0,-9.925 -8.049,-17.976 -17.978,-17.976 m -43.212,0 c -9.931,0 -17.978,8.051 -17.978,17.976 0,9.933 8.047,17.979 17.978,17.979 9.928,0 17.98,-8.046 17.98,-17.979 0,-9.925 -8.052,-17.976 -17.98,-17.976 m -43.209,0 C 8.046,136.616 0,144.667 0,154.592 c 0,9.933 8.046,17.979 17.979,17.979 9.929,0 17.977,-8.046 17.977,-17.979 0,-9.925 -8.048,-17.976 -17.977,-17.976 m 172.841,43.211 c -9.932,0 -17.982,8.046 -17.982,17.976 0,9.928 8.05,17.981 17.982,17.981 9.928,0 17.975,-8.053 17.975,-17.981 0,-9.93 -8.047,-17.976 -17.975,-17.976 m -43.212,0 c -9.93,0 -17.979,8.046 -17.979,17.976 0,9.928 8.049,17.981 17.979,17.981 9.927,0 17.979,-8.053 17.979,-17.981 0,-9.93 -8.052,-17.976 -17.979,-17.976 m -43.208,0 c -9.93,0 -17.98,8.046 -17.98,17.976 0,9.928 8.05,17.981 17.98,17.981 9.929,0 17.978,-8.053 17.978,-17.981 0,-9.93 -8.049,-17.976 -17.978,-17.976 m -43.212,0 c -9.931,0 -17.978,8.046 -17.978,17.976 0,9.928 8.047,17.981 17.978,17.981 9.928,0 17.98,-8.053 17.98,-17.981 0,-9.93 -8.052,-17.976 -17.98,-17.976 m -43.209,0 C 8.046,179.827 0,187.873 0,197.803 c 0,9.928 8.046,17.981 17.979,17.981 9.929,0 17.977,-8.053 17.977,-17.981 0,-9.93 -8.048,-17.976 -17.977,-17.976 m 172.841,43.209 c -9.932,0 -17.982,8.053 -17.982,17.976 0,9.928 8.05,17.981 17.982,17.981 9.928,0 17.975,-8.053 17.975,-17.981 0,-9.923 -8.047,-17.976 -17.975,-17.976 m -43.212,0 c -9.93,0 -17.979,8.053 -17.979,17.976 0,9.928 8.049,17.981 17.979,17.981 9.927,0 17.979,-8.053 17.979,-17.981 0,-9.923 -8.052,-17.976 -17.979,-17.976 m -43.208,0 c -9.93,0 -17.98,8.053 -17.98,17.976 0,9.928 8.05,17.981 17.98,17.981 9.929,0 17.978,-8.053 17.978,-17.981 0,-9.923 -8.049,-17.976 -17.978,-17.976 m -43.212,0 c -9.931,0 -17.978,8.053 -17.978,17.976 0,9.928 8.047,17.981 17.978,17.981 9.928,0 17.98,-8.053 17.98,-17.981 0,-9.923 -8.052,-17.976 -17.98,-17.976 m -43.209,0 C 8.046,223.036 0,231.089 0,241.012 c 0,9.928 8.046,17.981 17.979,17.981 9.929,0 17.977,-8.053 17.977,-17.981 0,-9.923 -8.048,-17.976 -17.977,-17.976"
             id="path3052"
             style="fill:url(#radialGradient3046);stroke:none" /></g></g></g></g></svg>