<?xml version="1.0" encoding="UTF-8"?><svg xmlns="http://www.w3.org/2000/svg" xmlns:xlink="http://www.w3.org/1999/xlink" fill-opacity="1" color-rendering="auto" color-interpolation="auto" text-rendering="auto" stroke="black" stroke-linecap="square" width="314" stroke-miterlimit="10" shape-rendering="auto" stroke-opacity="1" fill="black" stroke-dasharray="none" font-weight="normal" stroke-width="1" height="362" font-family="'Dialog'" font-style="normal" stroke-linejoin="miter" font-size="12px" stroke-dashoffset="0" image-rendering="auto">
  <!--Generated by ySVG 2.5-->
  <defs id="genericDefs"/>
  <g>
    <defs id="defs1">
      <clipPath clipPathUnits="userSpaceOnUse" id="clipPath1">
        <path d="M0 0 L314 0 L314 362 L0 362 L0 0 Z"/>
      </clipPath>
      <clipPath clipPathUnits="userSpaceOnUse" id="clipPath2">
        <path d="M-258 -198 L56 -198 L56 164 L-258 164 L-258 -198 Z"/>
      </clipPath>
    </defs>
    <g fill="white" text-rendering="geometricPrecision" shape-rendering="geometricPrecision" transform="translate(258,198)" stroke="white">
      <rect x="-258" width="314" height="362" y="-198" clip-path="url(#clipPath2)" stroke="none"/>
    </g>
    <g text-rendering="geometricPrecision" stroke-miterlimit="1.45" shape-rendering="geometricPrecision" font-family="sans-serif" transform="matrix(1,0,0,1,258,198)" stroke-linecap="butt">
      <text x="-139.7549" xml:space="preserve" y="36.0352" clip-path="url(#clipPath2)" stroke="none">I3Equatorial</text>
      <rect fill="none" x="-163" width="116" height="39" y="12" clip-path="url(#clipPath2)"/>
      <text x="-137.0098" xml:space="preserve" y="-61.3648" clip-path="url(#clipPath2)" stroke="none">I3Direction</text>
      <rect fill="none" x="-163" width="116" height="39" y="-85.4" clip-path="url(#clipPath2)"/>
      <text x="-45.3447" xml:space="preserve" y="133.4352" clip-path="url(#clipPath2)" stroke="none">I3Galactic</text>
      <rect fill="none" x="-75" width="116" height="39" y="109.4" clip-path="url(#clipPath2)"/>
      <text x="-171.5627" xml:space="preserve" y="-158.7648" clip-path="url(#clipPath2)" stroke="none">Moon</text>
      <rect fill="none" x="-187.8" width="65" height="39" y="-182.8" clip-path="url(#clipPath2)"/>
      <text x="-70.9787" xml:space="preserve" y="-158.7648" clip-path="url(#clipPath2)" stroke="none">Sun</text>
      <rect fill="none" x="-92.8" width="65" height="39" y="-182.8" clip-path="url(#clipPath2)"/>
      <text x="-229.874" xml:space="preserve" y="133.4352" clip-path="url(#clipPath2)" stroke="none">I3SuperGalactic</text>
      <rect fill="none" x="-243" width="116" height="39" y="109.4" clip-path="url(#clipPath2)"/>
      <path fill="none" d="M-105 12 L-105 -38.4" clip-path="url(#clipPath2)"/>
      <path d="M-105 -46.4 L-110 -34.4 L-105 -37.4 L-100 -34.4 Z" clip-path="url(#clipPath2)" stroke="none"/>
      <path fill="none" d="M-105 -46.4 L-105 4" clip-path="url(#clipPath2)"/>
      <path d="M-105 12 L-100 0 L-105 3 L-110 0 Z" clip-path="url(#clipPath2)" stroke="none"/>
      <text x="-94.9951" xml:space="preserve" y="-12.6648" clip-path="url(#clipPath2)" stroke="none">I3Time</text>
      <path fill="none" d="M-87.3819 51 L-39.9812 103.464" clip-path="url(#clipPath2)"/>
      <path d="M-34.6181 109.4 L-38.9528 97.144 L-40.6516 102.722 L-46.3728 103.8479 Z" clip-path="url(#clipPath2)" stroke="none"/>
      <path fill="none" d="M-34.6181 109.4 L-82.0188 56.936" clip-path="url(#clipPath2)"/>
      <path d="M-87.3819 51 L-83.0472 63.256 L-81.3484 57.678 L-75.6272 56.5521 Z" clip-path="url(#clipPath2)" stroke="none"/>
      <path fill="none" d="M-145.2297 -143.8 L-118.7411 -92.5081" clip-path="url(#clipPath2)"/>
      <path d="M-115.0703 -85.4 L-116.134 -98.3564 L-119.2 -93.3966 L-125.0191 -93.7679 Z" clip-path="url(#clipPath2)" stroke="none"/>
      <text x="-183.9094" xml:space="preserve" y="-110.0648" clip-path="url(#clipPath2)" stroke="none">I3Time</text>
      <path fill="none" d="M-69.2492 -143.8 L-92.714 -92.6709" clip-path="url(#clipPath2)"/>
      <path d="M-96.0508 -85.4 L-86.5013 -94.2208 L-92.2969 -93.5797 L-95.5899 -98.3918 Z" clip-path="url(#clipPath2)" stroke="none"/>
      <text x="-69.6367" xml:space="preserve" y="-110.0648" clip-path="url(#clipPath2)" stroke="none">I3Time</text>
      <path fill="none" d="M-121.0164 51 L-163.9059 103.218" clip-path="url(#clipPath2)"/>
      <path d="M-168.9836 109.4 L-157.5033 103.3005 L-163.2712 102.4452 L-165.2309 96.9534 Z" clip-path="url(#clipPath2)" stroke="none"/>
      <path fill="none" d="M-75 128.9 L-119 128.9" clip-path="url(#clipPath2)"/>
      <path d="M-127 128.9 L-115 133.9 L-118 128.9 L-115 123.9 Z" clip-path="url(#clipPath2)" stroke="none"/>
      <path fill="none" d="M-168.9836 109.4 L-126.0941 57.182" clip-path="url(#clipPath2)"/>
      <path d="M-121.0164 51 L-132.4967 57.0995 L-126.7288 57.9548 L-124.7691 63.4466 Z" clip-path="url(#clipPath2)" stroke="none"/>
      <path fill="none" d="M-127 128.9 L-82.9971 128.9" clip-path="url(#clipPath2)"/>
      <path d="M-74.9971 128.9 L-86.9971 123.9 L-83.9971 128.9 L-86.9971 133.9 Z" clip-path="url(#clipPath2)" stroke="none"/>
    </g>
  </g>
</svg>
